HIERARCHY
ROOT Hips
{
	OFFSET 0.00000 0.00000 0.00000
	CHANNELS 6 Xposition Yposition Zposition Zrotation Yrotation Xrotation 
	JOINT LHipJoint
	{
		OFFSET 0 0 0
		CHANNELS 3 Zrotation Yrotation Xrotation
		JOINT LeftUpLeg
		{
			OFFSET 3.13874 -1.57224 1.49786
			CHANNELS 3 Zrotation Yrotation Xrotation
			JOINT LeftLeg
			{
				OFFSET 2.10955 -5.79594 0.00000
				CHANNELS 3 Zrotation Yrotation Xrotation
				JOINT LeftFoot
				{
					OFFSET 2.41843 -6.64458 0.00000
					CHANNELS 3 Zrotation Yrotation Xrotation
					JOINT LeftToeBase
					{
						OFFSET 0.04713 -0.12948 1.66229
						CHANNELS 3 Zrotation Yrotation Xrotation
						End Site
						{
							OFFSET 0.00000 -0.00000 0.85167
						}
					}
				}
			}
		}
	}
	JOINT RHipJoint
	{
		OFFSET 0 0 0
		CHANNELS 3 Zrotation Yrotation Xrotation
		JOINT RightUpLeg
		{
			OFFSET -3.13988 -1.57224 1.49786
			CHANNELS 3 Zrotation Yrotation Xrotation
			JOINT RightLeg
			{
				OFFSET -2.15006 -5.90725 0.00000
				CHANNELS 3 Zrotation Yrotation Xrotation
				JOINT RightFoot
				{
					OFFSET -2.34496 -6.44273 0.00000
					CHANNELS 3 Zrotation Yrotation Xrotation
					JOINT RightToeBase
					{
						OFFSET -0.08699 -0.23900 1.55223
						CHANNELS 3 Zrotation Yrotation Xrotation
						End Site
						{
							OFFSET -0.00000 -0.00000 0.80281
						}
					}
				}
			}
		}
	}
	JOINT LowerBack
	{
		OFFSET 0 0 0
		CHANNELS 3 Zrotation Yrotation Xrotation
		JOINT Spine
		{
			OFFSET 0.01292 1.96517 -0.16495
			CHANNELS 3 Zrotation Yrotation Xrotation
			JOINT Spine1
			{
				OFFSET 0.02122 1.88666 0.19706
				CHANNELS 3 Zrotation Yrotation Xrotation
				JOINT Neck
				{
					OFFSET 0 0 0
					CHANNELS 3 Zrotation Yrotation Xrotation
					JOINT Neck1
					{
						OFFSET -0.01683 1.81591 0.07903
						CHANNELS 3 Zrotation Yrotation Xrotation
						JOINT Head
						{
							OFFSET 0.00815 1.74013 -0.47700
							CHANNELS 3 Zrotation Yrotation Xrotation
							End Site
							{
								OFFSET -0.00204 1.83225 -0.16933
							}
						}
					}
				}
				JOINT LeftShoulder
				{
					OFFSET 0 0 0
					CHANNELS 3 Zrotation Yrotation Xrotation
					JOINT LeftArm
					{
						OFFSET 3.38482 1.41533 0.19802
						CHANNELS 3 Zrotation Yrotation Xrotation
						JOINT LeftForeArm
						{
							OFFSET 4.32712 -0.00000 0.00000
							CHANNELS 3 Zrotation Yrotation Xrotation
							JOINT LeftHand
							{
								OFFSET 3.28587 -0.00000 -0.00000
								CHANNELS 3 Zrotation Yrotation Xrotation
								JOINT LeftFingerBase
								{
									OFFSET 0 0 0
									CHANNELS 3 Zrotation Yrotation Xrotation
									JOINT LeftHandIndex1
									{
										OFFSET 0.43316 -0.00000 -0.00000
										CHANNELS 3 Zrotation Yrotation Xrotation
										End Site
										{
											OFFSET 0.34922 -0.00000 -0.00000
										}
									}
								}
								JOINT LThumb
								{
									OFFSET 0 0 0
									CHANNELS 3 Zrotation Yrotation Xrotation
									End Site
									{
										OFFSET 0.35456 -0.00000 0.35456
									}
								}
							}
						}
					}
				}
				JOINT RightShoulder
				{
					OFFSET 0 0 0
					CHANNELS 3 Zrotation Yrotation Xrotation
					JOINT RightArm
					{
						OFFSET -3.09725 1.62858 -0.14144
						CHANNELS 3 Zrotation Yrotation Xrotation
						JOINT RightForeArm
						{
							OFFSET -4.29104 -0.00000 0.00000
							CHANNELS 3 Zrotation Yrotation Xrotation
							JOINT RightHand
							{
								OFFSET -3.22720 -0.00000 -0.00000
								CHANNELS 3 Zrotation Yrotation Xrotation
								JOINT RightFingerBase
								{
									OFFSET 0 0 0
									CHANNELS 3 Zrotation Yrotation Xrotation
									JOINT RightHandIndex1
									{
										OFFSET -0.54362 -0.00000 -0.00000
										CHANNELS 3 Zrotation Yrotation Xrotation
										End Site
										{
											OFFSET -0.43828 -0.00000 -0.00000
										}
									}
								}
								JOINT RThumb
								{
									OFFSET 0 0 0
									CHANNELS 3 Zrotation Yrotation Xrotation
									End Site
									{
										OFFSET -0.44497 -0.00000 0.44497
									}
								}
							}
						}
					}
				}
			}
		}
	}
}
MOTION
Frames: 9
Frame Time: 0.0190476
0.00 0.00 0.00 0 0 0 0 0 0 -21 0 0 0 0 0 0 0 0 0 0 0 0 0 0 21 0 0 0 0 0 0 0 0 0 0 0 0 0 0 0 0 0 0 0 0 0 0 -16 0 0 21 0 0 11 0 0 0 -8 0 0 0 0 0 0 0 0 0 0 0 0 0 0 0 0 0 0 0 0 8 0 0 0 0 0 0 0 0 0 0 0 0 0 0 0 0 0
0.00 0.00 0.00 -171.3510 -50.1186 -175.1500 0.0000 0.0000 0.0000 -27.0240 -20.1507 -1.7520 0.1630 2.6008 7.1694 3.7732 0.1141 -36.9404 6.7332 -15.1031 -47.8580 0.0000 0.0000 0.0000 26.1668 12.4324 -20.0140 -0.2185 -3.0090 8.3039 -1.0198 -14.7046 -29.4074 -0.6815 5.2783 -14.7040 -0.2753 1.6210 10.5490 1.4481 2.1021 -8.6710 1.3148 1.0039 -15.7401 -5.4441 -7.2117 -16.6601 4.1010 -10.9904 27.9640 0.6462 -5.2638 12.5862 -0.0000 -0.0000 0.0000 -81.3715 14.8456 16.3004 17.1982 -27.1184 -4.1773 -0.0000 -0.0000 9.9826 27.0638 27.9008 13.4462 -7.1250 0.0000 -0.0000 -3.9835 60.6717 -1.5231 -0.0000 -0.0000 0.0000 70.6484 -21.1546 42.6414 -25.1150 36.3213 -8.3579 0.0000 -0.0000 -15.2936 -16.0940 -18.4786 5.2250 7.1250 -0.0000 -0.0000 11.7440 -48.7984 -1.1143
0.00 0.00 0.00 -173.1840 -49.3730 -175.7970 0.0000 0.0000 0.0000 -35.1354 -32.1248 15.4665 0.0226 -0.9700 -2.6663 6.7670 7.7973 -52.0513 6.4658 -14.8650 -46.8237 0.0000 0.0000 0.0000 25.6292 10.8875 -2.5428 -0.2161 -2.9926 8.2581 -1.9268 -11.4064 -32.4033 -0.0514 1.4638 -4.0259 0.3336 1.6697 7.5510 1.7956 2.1509 -9.5768 1.4233 0.9364 -14.9029 -6.4527 -6.4588 -16.4986 1.0065 -9.2506 32.0331 -0.1811 -5.1417 14.0371 -0.0000 0.0000 0.0000 -85.2484 16.1788 19.7235 20.2738 -30.9708 -5.6716 -0.0000 -0.0000 8.1841 25.8737 32.2021 14.4917 -7.1250 0.0000 -0.0000 -7.8687 64.8069 -3.7818 -0.0000 0.0000 0.0000 68.9966 -20.7034 43.7709 -23.5288 34.6620 -7.4369 0.0000 -0.0000 -15.6581 -16.9571 -19.1012 5.6980 7.1250 -0.0000 -0.0000 11.1321 -49.5552 -1.2643
0.00 0.00 0.00 -174.4290 -46.9091 -174.5310 0.0000 0.0000 0.0000 -45.8592 -43.4724 31.9921 0.1078 -2.1166 -5.8280 13.1202 3.9844 -71.1701 4.7317 -13.0751 -39.6502 0.0000 0.0000 0.0000 26.3379 14.0333 0.5104 -0.0669 -1.6684 4.5901 -1.9577 -12.3661 -33.2902 -0.0006 -0.1540 0.4232 0.1984 1.5431 6.0130 2.2080 1.8544 -10.4360 2.0628 0.7889 -14.9761 -5.4053 -5.2106 -16.5662 -0.0052 -7.3960 32.0475 -0.4335 -4.3791 13.8675 -0.0000 0.0000 0.0000 -85.6828 18.0889 15.2622 17.1044 -26.9952 -4.1346 -0.0000 -0.0000 9.7215 26.6011 29.2495 13.7496 -7.1250 0.0000 -0.0000 -5.1882 61.9658 -2.1442 -0.0000 0.0000 0.0000 68.3529 -19.4098 45.9406 -26.5784 37.7742 -9.2397 0.0000 -0.0000 -16.0886 -17.6277 -18.9606 5.8945 7.1250 -0.0000 -0.0000 10.4434 -49.5161 -1.1744
0.00 0.00 0.00 -175.5010 -40.1501 -174.8440 0.0000 0.0000 0.0000 -48.4200 -45.8380 36.2982 0.0289 -1.0977 -3.0177 17.4002 2.3496 -82.9463 4.0857 -12.2735 -36.7066 0.0000 0.0000 0.0000 27.9576 13.9250 0.4092 -0.0654 -1.6503 4.5400 -1.2165 -9.9553 -26.6169 -0.0081 0.5828 -1.6015 -1.7238 0.6907 6.3664 3.5224 0.5090 -10.4603 4.8980 0.4531 -15.2581 -1.3700 -2.0415 -17.4267 -4.1474 -2.6580 32.5086 -2.0195 -2.4786 13.9489 0.0000 0.0000 0.0000 -88.5309 19.1467 16.1731 19.7961 -30.3959 -5.4278 -0.0000 -0.0000 9.3405 27.0756 27.6863 13.3610 -7.1250 0.0000 -0.0000 -3.8730 60.4488 -1.4603 0.0000 0.0000 0.0000 62.3984 -26.6272 45.8234 -80.0879 59.6255 -51.4267 0.0000 -0.0000 -14.4973 -21.2373 -15.2350 5.8309 7.1250 -0.0000 -0.0000 6.0245 -46.1795 -0.1760
0.00 0.00 0.00 -175.9440 -39.4902 -174.6190 0.0000 0.0000 0.0000 -49.9092 -46.3014 37.7921 0.0289 -1.0967 -3.0150 18.0414 2.1211 -84.6849 3.9571 -12.1031 -36.0979 0.0000 0.0000 0.0000 27.5992 13.6667 -0.0382 -0.0836 -1.8654 5.1337 -1.0708 -10.0308 -25.5708 -0.1175 2.2097 -6.0857 -1.3901 0.3906 6.1512 3.1515 0.1037 -10.4149 4.3562 0.1906 -15.0036 0.2022 -1.2930 -16.2400 -4.9623 -1.8133 31.7076 -2.4146 -2.0258 13.3242 0.0000 -0.0000 0.0000 -87.8490 20.0104 16.4574 20.2598 -30.9541 -5.6644 -0.0000 -0.0000 8.9394 27.0049 27.5983 13.2841 -7.1250 0.0000 -0.0000 -3.9161 60.3384 -1.4663 0.0000 -0.0000 0.0000 62.3245 -28.5377 42.6414 -106.9694 58.8835 -74.6408 0.0000 -0.0000 -16.3803 -21.9252 -12.3615 4.9249 7.1250 -0.0000 -0.0000 4.8477 -43.2199 0.2135
0.00 0.00 0.00 -175.9310 -38.9151 -174.8360 0.0000 0.0000 0.0000 -49.6817 -45.6131 37.7441 0.0332 -1.1756 -3.2320 18.0846 2.5179 -84.8173 4.0400 -12.2134 -36.4913 0.0000 0.0000 0.0000 27.7587 13.7071 -0.2783 -0.1136 -2.1731 5.9843 -1.0767 -9.5879 -25.2578 -0.1209 2.2416 -6.1738 -0.8069 0.0287 6.1981 2.9198 -0.3533 -10.5050 3.8573 -0.1112 -15.0948 2.5970 -0.0429 -16.1366 -6.2361 -0.3560 32.1264 -3.1360 -1.3053 13.5189 -0.0000 -0.0000 0.0000 -87.2401 21.8726 16.6343 21.2532 -32.1227 -6.1840 -0.0000 -0.0000 8.7617 23.7179 28.9111 11.9914 -7.1250 0.0000 -0.0000 -8.3653 60.8864 -3.2514 -0.0000 -0.0000 0.0000 61.2923 -29.8620 38.7310 -129.3271 53.2633 -93.2875 0.0000 -0.0000 -22.2896 -23.0948 -10.4292 4.4140 7.1250 -0.0000 -0.0000 3.5189 -41.2698 0.3242
0.00 0.00 0.00 -176.0860 -37.8418 -175.2740 0.0000 0.0000 0.0000 -41.6974 -37.3270 27.8831 0.0503 -1.4479 -3.9821 14.3662 2.7593 -74.5655 4.5046 -12.8032 -38.6361 0.0000 0.0000 0.0000 27.6617 12.9293 -1.2628 -0.2102 -2.9521 8.1454 -1.2088 -7.8802 -25.0003 -0.2209 3.0252 -8.3490 -0.1301 -0.6735 6.0128 2.4702 -1.2697 -10.3616 3.1257 -0.6561 -14.7428 5.7314 1.3954 -13.7355 -7.3298 1.1423 31.4021 -3.8306 -0.4281 12.8086 0.0000 -0.0000 0.0000 -86.0905 24.1571 17.0309 22.3310 -33.3491 -6.7669 -0.0000 -0.0000 7.9565 23.1232 29.3108 11.8073 -7.1250 0.0000 -0.0000 -9.2753 61.1453 -3.6655 0.0000 -0.0000 0.0000 56.8486 -29.1295 22.8372 -152.3698 38.7735 -110.1088 0.0000 -0.0000 -45.9857 -11.9276 -10.0667 2.1146 7.1250 -0.0000 -0.0000 13.1693 -39.9204 1.6826
0.00 0.00 0.00 -176.4120 -37.2184 -175.4400 0.0000 0.0000 0.0000 -32.8581 -24.0106 14.3894 0.0057 -0.4886 -1.3426 8.6109 2.8325 -57.0152 5.3875 -13.8073 -42.4709 0.0000 0.0000 0.0000 27.4819 11.7940 -1.9704 -0.2778 -3.3898 9.3658 -1.3194 -6.9095 -25.1942 -0.3270 3.6756 -10.1658 -1.1460 -1.1194 6.1667 2.2544 -2.0135 -10.1988 3.5852 -0.9025 -14.5813 8.2162 2.2715 -13.1635 -7.5772 1.8439 31.2023 -4.2527 0.1537 12.7046 0.0000 0.0000 0.0000 -85.3737 25.3911 17.6696 23.5928 -34.7307 -7.4733 -0.0000 -0.0000 7.8102 21.2049 30.9641 11.2886 -7.1250 0.0000 -0.0000 -12.5432 62.3146 -5.3243 0.0000 0.0000 0.0000 50.8381 -27.8006 -0.9595 -158.2190 32.7287 -113.5329 0.0000 -0.0000 -61.8980 1.5265 -11.0968 -0.2939 7.1250 -0.0000 -0.0000 24.7078 -39.7676 3.4323
